# xmcd
#
# Track frame offsets:
#	150
#	12842
#	24727
#	37535
#	50447
#	62260
#	73980
#	87777
#	101447
#	113177
#	128927
#
# Disc length: 1888 seconds
#
# Revision: 1
# Processed by: cddbd v1.5.2PL0 Copyright (c) Steve Scherf et al.
# Submitted via: audiograbber 1.83.01
#
DISCID=84075e0b
DTITLE=Peaches and Herb - Greatest Hits
DYEAR=1968
DGENRE=
TTITLE0=United
TTITLE1=Let's Fall In Love
TTITLE2=Two Little Kids
TTITLE3=We've Got To Love One Another
TTITLE4=For Your Love
TTITLE5=Close Your Eyes
TTITLE6=What A Lovely Way (To Say Goodnight)
TTITLE7=Love Is Strange
TTITLE8=I Need Your Love So Desperately
TTITLE9=The Ten Commandments Of Love
TTITLE10=It's True I Love You
EXTD=
EXTT0=
EXTT1=
EXTT2=
EXTT3=
EXTT4=
EXTT5=
EXTT6=
EXTT7=
EXTT8=
EXTT9=
EXTT10=
PLAYORDER=
